# xmcd
#
# Track frame offsets: 
#        150
#        15732
#        31985
#        49358
#        62271
#        75839
#        94050
#
# Disc length: 1452 seconds
#
# Revision: 0
# Processed by: cddbd v1.5.2PL0 Copyright (c) Steve Scherf et al.
# Submitted via: ExactAudioCopyFreeDBPlugin 1.0
#
DISCID=4605aa07
DTITLE=Ania Dabrowska  - Dla naiwnych marzycieli Bonus
DYEAR=1900
DGENRE=Acoustic
TTITLE0=W głowie (acoustic)
TTITLE1=Nieprawda (acoustic)
TTITLE2=Nie patrzę (acoustic)
TTITLE3=W głowie (remix)
TTITLE4=Constant dreamer
TTITLE5=Hold on
TTITLE6=Znam na pamięć dalszy ciąg
EXTD=
EXTT0=
EXTT1=
EXTT2=
EXTT3=
EXTT4=
EXTT5=
EXTT6=
PLAYORDER=
